<svg id="visual" viewBox="0 0 900 600" width="900" height="600" xmlns="http://www.w3.org/2000/svg" xmlns:xlink="http://www.w3.org/1999/xlink" version="1.1"><path d="M0 380L12.5 384.2C25 388.3 50 396.7 75 406C100 415.3 125 425.7 150 423.7C175 421.7 200 407.3 225 400.7C250 394 275 395 300 390.8C325 386.7 350 377.3 375 372.5C400 367.7 425 367.3 450 375.2C475 383 500 399 525 404C550 409 575 403 600 395.7C625 388.3 650 379.7 675 382.3C700 385 725 399 750 401C775 403 800 393 825 396.2C850 399.3 875 415.7 887.5 423.8L900 432L900 601L887.5 601C875 601 850 601 825 601C800 601 775 601 750 601C725 601 700 601 675 601C650 601 625 601 600 601C575 601 550 601 525 601C500 601 475 601 450 601C425 601 400 601 375 601C350 601 325 601 300 601C275 601 250 601 225 601C200 601 175 601 150 601C125 601 100 601 75 601C50 601 25 601 12.5 601L0 601Z" fill="#aa00ff"></path><path d="M0 383L12.5 394.8C25 406.7 50 430.3 75 441.7C100 453 125 452 150 447.2C175 442.3 200 433.7 225 430.8C250 428 275 431 300 430.7C325 430.3 350 426.7 375 425.5C400 424.3 425 425.7 450 423C475 420.3 500 413.7 525 410.2C550 406.7 575 406.3 600 401.7C625 397 650 388 675 382.8C700 377.7 725 376.3 750 382.7C775 389 800 403 825 416.7C850 430.3 875 443.7 887.5 450.3L900 457L900 601L887.5 601C875 601 850 601 825 601C800 601 775 601 750 601C725 601 700 601 675 601C650 601 625 601 600 601C575 601 550 601 525 601C500 601 475 601 450 601C425 601 400 601 375 601C350 601 325 601 300 601C275 601 250 601 225 601C200 601 175 601 150 601C125 601 100 601 75 601C50 601 25 601 12.5 601L0 601Z" fill="#7930e9"></path><path d="M0 437L12.5 436.2C25 435.3 50 433.7 75 432.3C100 431 125 430 150 436.3C175 442.7 200 456.3 225 453.2C250 450 275 430 300 426.5C325 423 350 436 375 445.8C400 455.7 425 462.3 450 455.8C475 449.3 500 429.7 525 428.7C550 427.7 575 445.3 600 452.8C625 460.3 650 457.7 675 451.5C700 445.3 725 435.7 750 434.5C775 433.3 800 440.7 825 445.5C850 450.3 875 452.7 887.5 453.8L900 455L900 601L887.5 601C875 601 850 601 825 601C800 601 775 601 750 601C725 601 700 601 675 601C650 601 625 601 600 601C575 601 550 601 525 601C500 601 475 601 450 601C425 601 400 601 375 601C350 601 325 601 300 601C275 601 250 601 225 601C200 601 175 601 150 601C125 601 100 601 75 601C50 601 25 601 12.5 601L0 601Z" fill="#4a3ace"></path><path d="M0 465L12.5 467.3C25 469.7 50 474.3 75 470.7C100 467 125 455 150 448.8C175 442.7 200 442.3 225 451.2C250 460 275 478 300 478.3C325 478.7 350 461.3 375 458.5C400 455.7 425 467.3 450 476.5C475 485.7 500 492.3 525 488.5C550 484.7 575 470.3 600 461.7C625 453 650 450 675 452.5C700 455 725 463 750 460.7C775 458.3 800 445.7 825 441.3C850 437 875 441 887.5 443L900 445L900 601L887.5 601C875 601 850 601 825 601C800 601 775 601 750 601C725 601 700 601 675 601C650 601 625 601 600 601C575 601 550 601 525 601C500 601 475 601 450 601C425 601 400 601 375 601C350 601 325 601 300 601C275 601 250 601 225 601C200 601 175 601 150 601C125 601 100 601 75 601C50 601 25 601 12.5 601L0 601Z" fill="#1d3baf"></path><path d="M0 483L12.5 484.8C25 486.7 50 490.3 75 494.8C100 499.3 125 504.7 150 506.5C175 508.3 200 506.7 225 502C250 497.3 275 489.7 300 490.7C325 491.7 350 501.3 375 502C400 502.7 425 494.3 450 488.5C475 482.7 500 479.3 525 484.3C550 489.3 575 502.7 600 501.8C625 501 650 486 675 479C700 472 725 473 750 474.8C775 476.7 800 479.3 825 486.3C850 493.3 875 504.7 887.5 510.3L900 516L900 601L887.5 601C875 601 850 601 825 601C800 601 775 601 750 601C725 601 700 601 675 601C650 601 625 601 600 601C575 601 550 601 525 601C500 601 475 601 450 601C425 601 400 601 375 601C350 601 325 601 300 601C275 601 250 601 225 601C200 601 175 601 150 601C125 601 100 601 75 601C50 601 25 601 12.5 601L0 601Z" fill="#00368d"></path><path d="M0 513L12.5 513.7C25 514.3 50 515.7 75 514.3C100 513 125 509 150 512.7C175 516.3 200 527.7 225 530C250 532.3 275 525.7 300 518C325 510.3 350 501.7 375 497.3C400 493 425 493 450 497.3C475 501.7 500 510.3 525 517.3C550 524.3 575 529.7 600 525.5C625 521.3 650 507.7 675 508.5C700 509.3 725 524.7 750 531.5C775 538.3 800 536.7 825 529.3C850 522 875 509 887.5 502.5L900 496L900 601L887.5 601C875 601 850 601 825 601C800 601 775 601 750 601C725 601 700 601 675 601C650 601 625 601 600 601C575 601 550 601 525 601C500 601 475 601 450 601C425 601 400 601 375 601C350 601 325 601 300 601C275 601 250 601 225 601C200 601 175 601 150 601C125 601 100 601 75 601C50 601 25 601 12.5 601L0 601Z" fill="#002c68"></path><path d="M0 526L12.5 526.3C25 526.7 50 527.3 75 531.3C100 535.3 125 542.7 150 547.7C175 552.7 200 555.3 225 551C250 546.7 275 535.3 300 531.7C325 528 350 532 375 533.2C400 534.3 425 532.7 450 533C475 533.3 500 535.7 525 534.5C550 533.3 575 528.7 600 531.5C625 534.3 650 544.7 675 545C700 545.3 725 535.7 750 533.3C775 531 800 536 825 539.8C850 543.7 875 546.3 887.5 547.7L900 549L900 601L887.5 601C875 601 850 601 825 601C800 601 775 601 750 601C725 601 700 601 675 601C650 601 625 601 600 601C575 601 550 601 525 601C500 601 475 601 450 601C425 601 400 601 375 601C350 601 325 601 300 601C275 601 250 601 225 601C200 601 175 601 150 601C125 601 100 601 75 601C50 601 25 601 12.5 601L0 601Z" fill="#002043"></path><path d="M0 567L12.5 567.5C25 568 50 569 75 567.2C100 565.3 125 560.7 150 560C175 559.3 200 562.7 225 566.5C250 570.3 275 574.7 300 572.5C325 570.3 350 561.7 375 561.5C400 561.3 425 569.7 450 569.3C475 569 500 560 525 557C550 554 575 557 600 559C625 561 650 562 675 564.5C700 567 725 571 750 570.7C775 570.3 800 565.7 825 563.5C850 561.3 875 561.7 887.5 561.8L900 562L900 601L887.5 601C875 601 850 601 825 601C800 601 775 601 750 601C725 601 700 601 675 601C650 601 625 601 600 601C575 601 550 601 525 601C500 601 475 601 450 601C425 601 400 601 375 601C350 601 325 601 300 601C275 601 250 601 225 601C200 601 175 601 150 601C125 601 100 601 75 601C50 601 25 601 12.5 601L0 601Z" fill="#001220"></path></svg>