<svg id="visual" viewBox="0 0 900 600" width="900" height="600" xmlns="http://www.w3.org/2000/svg" xmlns:xlink="http://www.w3.org/1999/xlink" version="1.1"><path d="M0 45L12.5 44.3C25 43.7 50 42.3 75 39.3C100 36.3 125 31.7 150 28.7C175 25.7 200 24.3 225 24.7C250 25 275 27 300 30.7C325 34.3 350 39.7 375 39.5C400 39.3 425 33.7 450 32.2C475 30.7 500 33.3 525 33.7C550 34 575 32 600 30.8C625 29.7 650 29.3 675 28.5C700 27.7 725 26.3 750 27.2C775 28 800 31 825 34.2C850 37.3 875 40.7 887.5 42.3L900 44L900 0L887.5 0C875 0 850 0 825 0C800 0 775 0 750 0C725 0 700 0 675 0C650 0 625 0 600 0C575 0 550 0 525 0C500 0 475 0 450 0C425 0 400 0 375 0C350 0 325 0 300 0C275 0 250 0 225 0C200 0 175 0 150 0C125 0 100 0 75 0C50 0 25 0 12.5 0L0 0Z" fill="#001220"></path><path d="M0 19L12.5 17.3C25 15.7 50 12.3 75 13.5C100 14.7 125 20.3 150 21C175 21.7 200 17.3 225 15.3C250 13.3 275 13.7 300 13.3C325 13 350 12 375 13.3C400 14.7 425 18.3 450 21.2C475 24 500 26 525 27C550 28 575 28 600 28C625 28 650 28 675 26.7C700 25.3 725 22.7 750 21.2C775 19.7 800 19.3 825 19C850 18.7 875 18.3 887.5 18.2L900 18L900 0L887.5 0C875 0 850 0 825 0C800 0 775 0 750 0C725 0 700 0 675 0C650 0 625 0 600 0C575 0 550 0 525 0C500 0 475 0 450 0C425 0 400 0 375 0C350 0 325 0 300 0C275 0 250 0 225 0C200 0 175 0 150 0C125 0 100 0 75 0C50 0 25 0 12.5 0L0 0Z" fill="#002043"></path></svg>